<?xml version="1.0"?>
<svg width="48" height="48" xmlns="http://www.w3.org/2000/svg" xmlns:svg="http://www.w3.org/2000/svg">
 <g class="layer">
  <title>Layer 1</title>
  <path d="m10.5,44.95l0,-4.55l11.2,0l0,-7.6l-3.7,0q-4.65,0 -7.87,-3.22q-3.23,-3.23 -3.23,-7.83q0,-3.15 1.65,-5.85q1.65,-2.7 4.55,-4.1q0.65,-3.95 3.78,-6.55q3.12,-2.6 7.12,-2.6t7.13,2.6q3.12,2.6 3.77,6.55q2.9,1.4 4.57,4.1q1.68,2.7 1.68,5.85q0,4.6 -3.25,7.82q-3.25,3.23 -7.9,3.23l-3.75,0l0,7.6l11.75,0l0,4.55l-27.5,0z" fill="#ffffff" id="svg_1"/>
 </g>
</svg>