<?xml version="1.0"?>
<svg width="48" height="48" xmlns="http://www.w3.org/2000/svg" xmlns:svg="http://www.w3.org/2000/svg">
 <g class="layer">
  <title>Layer 1</title>
  <path d="m10.45,43.25q-1.85,0 -3.9,-0.87t-3.75,-3.08q2.2,-0.65 2.95,-1.68t0.85,-3.02q0.15,-2.35 1.85,-3.98q1.7,-1.62 4.25,-1.62q2.6,0 4.37,1.77t1.78,4.38q0,3.5 -2.45,5.8t-5.95,2.3zm12.5,-12.55l-5.6,-5.85l20.45,-20.45q0.65,-0.65 1.5,-0.72q0.85,-0.08 1.6,0.72l2.6,2.55q0.75,0.75 0.7,1.63q-0.05,0.87 -0.7,1.57l-20.55,20.55z" fill="#ffffff" id="svg_1"/>
 </g>
</svg>